<?xml version="1.0" encoding="UTF-8" standalone="no"?>
<!-- Created with Inkscape (http://www.inkscape.org/) -->

<svg
   version="1.1"
   id="svg2"
   width="604.21332"
   height="490.76001"
   viewBox="0 0 604.21332 490.76001"
   sodipodi:docname="nova_logo_eps.eps"
   xmlns:inkscape="http://www.inkscape.org/namespaces/inkscape"
   xmlns:sodipodi="http://sodipodi.sourceforge.net/DTD/sodipodi-0.dtd"
   xmlns="http://www.w3.org/2000/svg"
   xmlns:svg="http://www.w3.org/2000/svg">
  <defs
     id="defs6" />
  <sodipodi:namedview
     id="namedview4"
     pagecolor="#ffffff"
     bordercolor="#000000"
     borderopacity="0.25"
     inkscape:showpageshadow="2"
     inkscape:pageopacity="0.0"
     inkscape:pagecheckerboard="0"
     inkscape:deskcolor="#d1d1d1" />
  <g
     id="g8"
     inkscape:groupmode="layer"
     inkscape:label="ink_ext_XXXXXX"
     transform="matrix(1.3333333,0,0,-1.3333333,0,490.76)">
    <g
       id="g10"
       transform="scale(0.1)">
      <path
         d="m 2360.13,3008.9 c -39.24,23.21 -78.6,44.89 -117.77,65.12 -12.86,-8.2 -25.71,-16.57 -38.63,-25.14 46.91,-21.42 93.55,-45.56 139.38,-72.68 448.47,-265.06 661.3,-602.38 568.4,-878.25 -0.13,-0.53 -0.59,-0.94 -0.9,-1.39 -30.69,-83.47 -83.44,-183.86 -158.04,-285.76 -15.63,-21.37 -32.32,-42.81 -49.84,-64.16 -94.65,-114.98 -217.11,-227.66 -367.52,-315.74 -73.6,-43.13 -149.3,-77.68 -224.62,-104.85 21.13,-6.54 42.43,-12.89 63.86,-19.04 59.51,28.12 119.52,59.75 179.48,94.84 226.44,132.64 411.98,291.33 534.81,445.7 27.9,35.08 52.56,69.94 73.72,104.25 26.81,43.43 48,85.97 63.1,126.83 0.28,0.52 0.76,0.96 0.97,1.56 102.27,303.82 -172.58,636.81 -666.4,928.71"
         style="fill:#1266ac;fill-opacity:1;fill-rule:nonzero;stroke:none"
         id="path12" />
      <path
         d="m 1551.39,3271.55 c -48.43,-0.35 -93.06,-5.17 -133.02,-14.63 -47.13,-13.29 -112.85,-36.64 -164.49,-96.35 C 1098.82,2993.02 990.84,2629.04 990,2206.55 c -0.836,-420.61 104.7,-783.72 257.95,-952.88 50.82,-47.11 76.66,-73.18 187.4,-101 136.79,-25.62 322.41,-1.95 525.96,67.48 -47.03,10.8 -93.19,22.31 -138.32,34.46 -138.54,-19.53 -263.45,-16.27 -356.29,1.07 -100.56,25.29 -124.02,48.97 -170.18,91.76 -139.13,153.61 -281.39,484.73 -280.67,866.66 0.8,383.65 145.26,712.78 286.04,864.92 46.9,54.2 106.61,75.41 149.45,87.48 20.61,4.89 43.07,8.79 67.02,11.64 18.6,2.22 38.14,3.8 58.48,4.74 129.51,5.92 292.41,-14.93 461.29,-69.63 14.12,12.33 28.22,24.4 42.32,36.25 -166.93,69.54 -326.15,110.06 -461.78,119.8 -23.12,1.65 -45.59,2.41 -67.28,2.25"
         style="fill:#1266ac;fill-opacity:1;fill-rule:nonzero;stroke:none"
         id="path14" />
      <path
         d="m 1842.59,1672.67 c -98.86,31.43 -120.83,56.55 -164.33,102.15 -54.9,68.51 -108.42,168.7 -150.12,290.36 -11.19,32.67 -21.53,66.87 -30.79,102.41 -37.99,145.22 -58.42,312.96 -47.51,489.73 10.75,174.02 50.53,334.94 104.68,472.19 -17.69,-1.13 -35.04,-2.53 -52.08,-4.17 -40.37,-141.15 -68.21,-302.11 -78.84,-473.95 -13.55,-219.26 2.79,-424.64 41.85,-596.24 13.03,-57.3 28.6,-110.78 46.44,-159.8 31.03,-85.31 68.89,-157.01 112.25,-211.13 47.91,-50.2 72.14,-77.86 181.06,-112.52 198.68,-50.1 509.36,-0.37 832.95,144.76 16.29,20.16 32.11,40.31 47.42,60.51 -315.46,-148.12 -651.18,-152.7 -842.98,-104.3"
         style="fill:#1266ac;fill-opacity:1;fill-rule:nonzero;stroke:none"
         id="path16" />
      <path
         d="m 2839.08,3367.23 c -345.29,233.85 -702.29,344.45 -925.15,306 -47.85,-10.35 -114.86,-29.57 -169.99,-85.97 -65.02,-62.21 -124.56,-155.49 -174.44,-271.47 24.11,-0.35 48.65,-1.25 73.59,-2.62 46,79.02 95.68,143.56 143.91,189.71 50.07,51.16 110.92,68.62 154.42,78.03 202.3,34.88 565.23,-32.91 878.72,-245.25 422.82,-286.32 615.91,-627.75 521.26,-894.93 -1.96,-5.7 -4.07,-11.33 -6.3,-16.92 -0.24,-0.55 -0.7,-0.93 -1.01,-1.38 -4.12,-9.36 -8.48,-18.88 -13.25,-28.63 -53.31,-110.55 -145.46,-244.47 -274.26,-367.63 -29.94,-47.33 -63.9,-95.28 -101.6,-143.53 185.47,119.55 333.45,254.7 426.85,384.63 10.7,14.81 20.58,29.55 29.84,44.21 18.26,29.07 33.66,57.82 46.01,85.93 0.35,0.52 0.86,0.93 1.1,1.5 120.22,296.89 -134.2,646.31 -609.7,968.32"
         style="fill:#1266ac;fill-opacity:1;fill-rule:nonzero;stroke:none"
         id="path18" />
      <path
         d="m 3418.7,2270.66 c -10.15,-15.67 -20.87,-31.37 -32.03,-47.11 99.25,-308.44 68.46,-564.14 -90.63,-705.97 -0.46,-0.36 -1.04,-0.49 -1.47,-0.81 -157.8,-132.75 -465,-284.94 -824.44,-284.94 -125.31,0 -245.42,18.42 -355.41,47.97 -25.78,6.92 -50.93,14.47 -75.49,22.52 -174.65,57.33 -318.11,141.02 -407.74,218.54 -74.84,72.97 -83.6,105.39 -102.7,165.91 -6.03,27.06 -10.58,56.84 -13.49,88.95 -23.7,67.94 -45.09,140.3 -63.96,216.61 -28.39,-139.81 -32.32,-264.6 -10.51,-362.18 21.03,-66.66 30.65,-102.38 113.06,-182.79 83.52,-72.11 208.17,-133.18 360.08,-176.91 35.33,-10.16 72.12,-19.38 110.24,-27.62 135.56,-29.24 287.44,-45.61 448.01,-45.61 395.76,0 739.47,99.52 913.13,245.69 0.55,0.33 1.21,0.43 1.68,0.84 185.54,165.47 179.72,463.69 31.67,826.91"
         style="fill:#1266ac;fill-opacity:1;fill-rule:nonzero;stroke:none"
         id="path20" />
      <path
         d="m 1709.18,2580.73 c 123.57,218.12 289.38,384.43 444.29,490.03 13.94,9.51 27.81,18.51 41.52,27.04 66.07,40.96 129.18,70.45 185.06,87.6 67.14,23.2 129.32,11.26 172.29,0 196.49,-60.4 492.02,-285.56 680.27,-617.8 24.9,-44.06 47.64,-87.58 68.16,-130.4 5.83,12.24 11.31,24.32 16.46,36.2 0.58,0.8 1.37,1.39 1.72,2.27 0.7,1.74 1.34,3.51 2.02,5.26 -18.09,35.05 -37.37,70.51 -57.64,106.38 -207.35,365.92 -478.97,626.71 -695.25,693.21 -47.42,12.41 -115.8,25.56 -189.77,0 -79.93,-24.54 -167.43,-75.68 -256.39,-148.79 -13.07,-10.73 -26.17,-21.98 -39.27,-33.62 -139.31,-123.98 -280.12,-299.94 -399.59,-510.8 -70.18,-123.88 -126.41,-248.22 -168.16,-367.26 8.34,-29 17.03,-57.5 26.07,-85.45 29.99,143.41 84.07,297.63 168.21,446.13"
         style="fill:#1266ac;fill-opacity:1;fill-rule:nonzero;stroke:none"
         id="path22" />
      <path
         d="m 139.176,655.781 c 0,20.367 15.496,37.199 33.012,37.199 H 502.18 V 839.242 H 140.227 C 62.9063,839.242 0,766.082 0,677.422 V 0 h 139.176 v 365.672 h 267.09 V 510.75 h -267.09 v 145.031"
         style="fill:#1266ac;fill-opacity:1;fill-rule:nonzero;stroke:none"
         id="path24" />
      <path
         d="m 774.766,338.078 96.945,314.113 96.922,-314.113 z m 100.039,510.754 c -41.266,0 -81.465,-28.793 -95.887,-74.344 L 529.332,0 h 138.231 l 62.867,195.492 h 282.56 L 1074.87,0 h 147.44 L 969.668,774.488 c -14.453,44.364 -51.547,74.344 -94.863,74.344"
         style="fill:#1266ac;fill-opacity:1;fill-rule:nonzero;stroke:none"
         id="path26" />
      <path
         d="m 1614.18,447.211 h -105.19 v 209.82 c 0,20.391 0,39.52 17.55,39.52 h 82.49 c 88.69,0 140.24,-15.551 140.24,-124.61 0,-93.582 -66.98,-124.73 -135.09,-124.73 z m 167.06,360.84 c -58.8,32.379 -114.46,28.758 -175.28,31.191 h -95.91 c -77.34,0 -140.23,-73.16 -140.23,-163.094 V 0 h 139.17 v 303.332 h 98 c 65.99,0 134.03,10.77 188.71,50.348 69.04,49.16 95.89,133.121 95.89,221.84 0,93.46 -35.08,190.562 -110.35,232.531"
         style="fill:#1266ac;fill-opacity:1;fill-rule:nonzero;stroke:none"
         id="path28" />
      <path
         d="m 3638.66,0 h 139.29 V 839.242 H 3638.66 V 0"
         style="fill:#1266ac;fill-opacity:1;fill-rule:nonzero;stroke:none"
         id="path30" />
      <path
         d="M 4263.51,501.742 V 364.281 l 128.91,-0.722 v -209.59 c -23.7,-8.239 -51.5,-11.731 -78.31,-11.731 -156.82,0 -237.2,106.883 -237.2,280.821 0,61.05 13.41,137.363 44.33,187.98 40.21,64.563 105.16,93.961 173.21,93.961 57.79,0 130.99,-14.148 183.53,-44.68 h 17.57 v 145.692 c -68.05,27.039 -134.05,42.328 -207.25,42.328 -117.64,-1.18 -219.66,-49.352 -284.62,-157.488 -49.51,-79.813 -70.15,-173.864 -70.15,-266.68 0,-108.043 26.84,-216.172 88.73,-297.231 C 4092.37,35.2891 4188.25,0.0703125 4294.45,0.0703125 4374.89,1.25 4452.3,15.3086 4531.63,39.9805 V 501.742 h -268.12"
         style="fill:#1266ac;fill-opacity:1;fill-rule:nonzero;stroke:none"
         id="path32" />
      <path
         d="m 2226.19,692.98 h 327.85 v 146.262 h -360.87 c -77.29,0 -139.15,-73.16 -139.15,-161.82 V 295.941 167.75 161.891 c 0,-88.7426 61.86,-161.8206875 139.15,-161.8206875 h 3.27 357.6 V 146.34 v 0 h -327.97 c -17.47,0.012 -32.9,16.789 -32.9,37.121 v 112.48 75.758 h 267.05 v 140.27 h -267.05 v 143.812 c 0,20.367 15.49,37.199 33.02,37.199"
         style="fill:#1266ac;fill-opacity:1;fill-rule:nonzero;stroke:none"
         id="path34" />
      <path
         d="m 3334.17,848.832 c -48.46,1.18 -72.17,-29.961 -107.54,-76.383 L 3081.1,510.031 2935.58,772.449 c -35.41,46.422 -59.18,77.563 -107.63,76.383 -50.55,-1.23 -89.74,-50.402 -90.82,-107.891 V 0.0703125 h 116.33 L 2854.75,647.09 3082.58,282.852 3307.38,647.09 3308.65,0.0703125 h 116.27 V 740.941 c -0.96,57.489 -40.21,106.661 -90.75,107.891"
         style="fill:#1266ac;fill-opacity:1;fill-rule:nonzero;stroke:none"
         id="path36" />
    </g>
  </g>
</svg>
